<?xml version="1.0" encoding="UTF-8" standalone="no"?>
<!DOCTYPE svg PUBLIC "-//W3C//DTD SVG 1.1//EN" "http://www.w3.org/Graphics/SVG/1.1/DTD/svg11.dtd">
<svg width="100%" height="100%" viewBox="0 0 180 180" version="1.1" xmlns="http://www.w3.org/2000/svg" xmlns:xlink="http://www.w3.org/1999/xlink" xml:space="preserve" xmlns:serif="http://www.serif.com/" style="fill-rule:evenodd;clip-rule:evenodd;stroke-linejoin:round;stroke-miterlimit:2;">
    <g transform="matrix(1,0,0,1,-1206.79,-318.279)">
        <g transform="matrix(2.23385,0,0,2.23385,838.266,-422.954)">
            <g transform="matrix(0.494346,0,0,0.494346,-438.624,159.233)">
                <rect x="1221" y="349.12" width="163" height="163" style="fill:rgb(61,80,245);fill-opacity:0;"/>
            </g>
            <g transform="matrix(1.24069,0,0,1.24069,-50.077,-90.6295)">
                <path d="M181.265,390.843L187.671,345.625L180.65,345.625L174.244,390.843L181.265,390.843Z" style="fill-rule:nonzero;"/>
            </g>
            <g transform="matrix(0.404625,0,-0.0117185,0.466936,124.52,197.292)">
                <path d="M197.973,391.457C205.836,391.457 210.259,385.376 211.978,372.169C213.698,358.84 210.873,352.759 202.826,352.759C195.025,352.759 190.602,358.84 188.882,372.169C187.162,385.376 189.988,391.457 197.973,391.457Z" style="fill-rule:nonzero;"/>
            </g>
            <g transform="matrix(0.432037,0,-0.0117185,0.466936,150.642,197.292)">
                <path d="M197.973,391.457C205.836,391.457 210.259,385.376 211.978,372.169C213.698,358.84 210.873,352.759 202.826,352.759C195.025,352.759 190.602,358.84 188.882,372.169C187.162,385.376 189.988,391.457 197.973,391.457Z" style="fill-rule:nonzero;"/>
            </g>
            <g transform="matrix(1.24069,0,0,1.24069,-83.8538,-90.6295)">
                <path d="M236.119,387.28L240.972,353.373L235.013,353.373L234.583,356.567C233.355,354.11 231.328,352.82 228.625,352.82C222.605,352.82 217.753,358.717 216.033,371.186C213.883,386.666 218.305,391.457 223.772,391.457C226.291,391.457 228.564,389.86 230.406,387.341C229.669,395.143 226.966,398.091 223.404,398.091C220.947,398.091 218.858,396.125 217.875,392.808L212.101,394.651C213.76,400.364 217.691,403.742 222.851,403.742C230.959,403.742 234.645,397.784 236.119,387.28ZM222.114,371.862C223.097,364.491 225.308,358.348 229.178,358.348C231.942,358.348 233.478,360.99 233.416,364.737L231.451,378.435C230.468,382.243 228.379,385.929 225.369,385.929C221.008,385.929 221.07,379.786 222.114,371.862Z" style="fill-rule:nonzero;"/>
            </g>
            <g transform="matrix(1.24069,0,0,1.24069,-86.0731,-90.6295)">
                <path d="M252.335,391.457C260.198,391.457 264.621,385.376 266.341,372.169C268.06,358.84 265.235,352.759 257.188,352.759C249.387,352.759 244.964,358.84 243.244,372.169C241.524,385.376 244.35,391.457 252.335,391.457ZM252.765,385.929C249.08,385.929 248.036,381.629 249.387,372.169C250.738,362.648 253.072,358.287 256.697,358.287C260.444,358.287 261.549,362.648 260.198,372.169C258.847,381.629 256.512,385.929 252.765,385.929Z" style="fill-rule:nonzero;"/>
            </g>
        </g>
    </g>
</svg>
