<?xml version="1.0" encoding="UTF-8" standalone="no"?>
<!DOCTYPE svg PUBLIC "-//W3C//DTD SVG 1.1//EN" "http://www.w3.org/Graphics/SVG/1.1/DTD/svg11.dtd">
<svg width="100%" height="100%" viewBox="0 0 379 122" version="1.1" xmlns="http://www.w3.org/2000/svg" xmlns:xlink="http://www.w3.org/1999/xlink" xml:space="preserve" xmlns:serif="http://www.serif.com/" style="fill-rule:evenodd;clip-rule:evenodd;stroke-linejoin:round;stroke-miterlimit:2;" fill="#ffffff">
    <g transform="matrix(1,0,0,1,-1246.1,-195.996)">
        <g transform="matrix(1.88087,0,0,1.88087,918.369,-442.078)">
            <path d="M181.265,390.843L188.575,339.245L181.553,339.245L174.244,390.843L181.265,390.843Z" style="fill-rule:nonzero;"/>
            <path d="M197.973,391.457C205.836,391.457 210.259,385.376 211.978,372.169C213.698,358.84 210.873,352.759 202.826,352.759C195.025,352.759 190.602,358.84 188.882,372.169C187.162,385.376 189.988,391.457 197.973,391.457ZM198.403,385.929C194.718,385.929 193.674,381.629 195.025,372.169C196.376,362.648 198.71,358.287 202.335,358.287C206.082,358.287 207.187,362.648 205.836,372.169C204.484,381.629 202.15,385.929 198.403,385.929Z" style="fill-rule:nonzero;"/>
            <g transform="matrix(0.326128,0,-0.00944515,0.376351,140.725,232.065)">
                <path d="M197.973,391.457C205.836,391.457 210.259,385.376 211.978,372.169C213.698,358.84 210.873,352.759 202.826,352.759C195.025,352.759 190.602,358.84 188.882,372.169C187.162,385.376 189.988,391.457 197.973,391.457Z" style="fill-rule:nonzero;"/>
            </g>
            <g transform="matrix(0.348222,0,-0.00944515,0.376351,190.793,232.065)">
                <path d="M197.973,391.457C205.836,391.457 210.259,385.376 211.978,372.169C213.698,358.84 210.873,352.759 202.826,352.759C195.025,352.759 190.602,358.84 188.882,372.169C187.162,385.376 189.988,391.457 197.973,391.457Z" style="fill-rule:nonzero;"/>
            </g>
            <path d="M236.119,387.28L240.972,353.373L235.013,353.373L234.583,356.567C233.355,354.11 231.328,352.82 228.625,352.82C222.605,352.82 217.753,358.717 216.033,371.186C213.883,386.666 218.305,391.457 223.772,391.457C226.291,391.457 228.564,389.86 230.406,387.341C229.669,395.143 226.966,398.091 223.404,398.091C220.947,398.091 218.858,396.125 217.875,392.808L212.101,394.651C213.76,400.364 217.691,403.742 222.851,403.742C230.959,403.742 234.645,397.784 236.119,387.28ZM222.114,371.862C223.097,364.491 225.308,358.348 229.178,358.348C231.942,358.348 233.478,360.99 233.416,364.737L231.451,378.435C230.468,382.243 228.379,385.929 225.369,385.929C221.008,385.929 221.07,379.786 222.114,371.862Z" style="fill-rule:nonzero;"/>
            <path d="M252.335,391.457C260.198,391.457 264.621,385.376 266.341,372.169C268.06,358.84 265.235,352.759 257.188,352.759C249.387,352.759 244.964,358.84 243.244,372.169C241.524,385.376 244.35,391.457 252.335,391.457ZM252.765,385.929C249.08,385.929 248.036,381.629 249.387,372.169C250.738,362.648 253.072,358.287 256.697,358.287C260.444,358.287 261.549,362.648 260.198,372.169C258.847,381.629 256.512,385.929 252.765,385.929Z" style="fill-rule:nonzero;"/>
            <g transform="matrix(0.531669,0,0,0.531669,-134.708,-22.8201)">
                <path d="M826.412,775.161L816.597,775.161L823.413,726.752C824.569,718.78 822.836,714.505 817.405,714.505C813.463,714.505 809.291,720.476 806.808,726.82C801.837,745.333 796.953,763.209 794.984,768.301C792.969,773.511 788.315,778.821 779.532,778.786C769.361,778.746 760.001,776.852 762.985,757.596L769.224,717.736L761.714,717.736L763.216,707.569L770.841,707.569L773.845,688.16L784.474,688.16L781.586,707.569L794.641,707.569L793.139,717.736L779.968,717.736L774.192,756.325C772.921,764.759 773.845,768.802 778.235,768.802C779.411,768.802 782.305,768.646 784.514,763.843C789.936,752.059 801.685,701.421 807.847,680.996L819.313,680.996C817.823,685.83 815.026,696.154 811.819,708.113C815.161,705.375 818.895,704.263 822.08,704.223C822.111,704.223 822.142,704.223 822.173,704.223C822.202,704.223 822.23,704.223 822.258,704.223C823.644,704.223 824.985,704.37 826.247,704.687C832.562,706.273 836.912,712.097 835.082,724.903L835.044,725.172C834.718,729.111 834.06,734.522 832.991,742.807C832.083,749.774 831.848,755.686 832.312,760.588C832.709,765.177 833.799,769.602 836.224,772.899C836.846,773.772 837.539,774.551 838.303,775.236L826.412,775.161Z"/>
            </g>
            <g transform="matrix(1,0,0,1,-7.12361,0)">
                <path d="M324.818,385.929C321.133,385.929 320.088,381.629 321.44,372.169C322.791,362.648 325.125,358.287 328.749,358.287C332.496,358.287 333.602,362.648 332.251,372.169C330.899,381.629 328.565,385.929 324.818,385.929Z" style="fill-rule:nonzero;"/>
            </g>
            <g transform="matrix(0.531669,0,0,0.531669,-134.708,-22.8201)">
                <path d="M954.064,745.167C945.201,756.931 933.816,755.032 922.534,750.854C918.123,749.221 913.775,747.247 909.773,746.343C907.364,745.798 905.119,745.506 903.323,747.017C900.059,749.761 899.107,754.108 899.333,757.854C899.471,760.15 900.005,762.275 901.029,763.57C901.6,764.291 902.505,764.688 903.354,764.451C904.012,764.267 904.538,763.7 904.954,762.891C905.449,761.931 905.753,760.708 905.883,759.221L905.952,759.227L907.231,749.973C908.044,750.031 908.892,750.195 909.762,750.392C912.347,750.976 915.075,752.006 917.872,753.102L916.797,760.645C916.11,767.188 913.231,771.174 910.018,773.334C904.246,777.213 896.633,775.741 892.403,770.396C890.247,767.671 888.643,763.348 888.352,758.514C887.935,751.565 890.189,743.689 896.243,738.598C899.971,735.463 904.316,734.538 909.123,735.084C909.178,735.09 909.233,735.096 909.287,735.103L910.123,729.059C911.278,720.971 905.314,716.812 900.231,716.812C895.263,716.812 891.45,721.896 889.717,729.174L882.785,775.236L863.412,775.236L863.419,774.818C869.181,770.19 873.102,761.825 875.418,749.389L876.672,740.948C878.869,721.692 875.697,710.928 866.527,707.569L872.475,709.498C874.21,709.908 878.599,710.818 880.943,713.295C882.042,714.455 884.971,718.624 886.683,719.084C888.751,719.639 889.92,716.88 891.566,714.386C895.378,708.609 900.346,706.414 904.852,706.414C913.171,706.414 923.756,711.844 921.561,727.21L920.01,738.098C920.302,738.209 920.596,738.321 920.89,738.434C924.968,740.005 929.191,741.821 933.318,742.64C937.63,743.497 941.801,742.985 945.243,738.582L935.778,736.404L960,726.336L958.862,752.542L954.064,745.167Z"/>
            </g>
        </g>
    </g>
</svg>
